<svg enable-background="new 0 0 512.007 512.007" viewBox="0 0 512.007 512.007" style="fill:#484848;" xmlns="http://www.w3.org/2000/svg"><path d="m170.667 106.672c-35.292 0-64 28.708-64 64s28.708 64 64 64 64-28.708 64-64-28.709-64-64-64zm0 106.666c-23.521 0-42.667-19.135-42.667-42.667s19.146-42.667 42.667-42.667 42.667 19.135 42.667 42.667c-.001 23.532-19.147 42.667-42.667 42.667z"/><path d="m85.979 181.12c-.396-3.354-.646-6.979-.646-10.448 0-47.052 38.271-85.333 85.333-85.333 19.604 0 38.792 6.833 54 19.25 3.396 2.771 8.104 3.167 11.896 1.083l58.375-32.208c2.854-1.573 4.833-4.354 5.375-7.552.542-3.208-.396-6.49-2.563-8.906-32.438-36.219-78.75-57-127.083-57-94.104-.001-170.666 76.562-170.666 170.666 0 15.625 2.25 31.417 6.688 46.927.896 3.115 3.146 5.667 6.146 6.917 1.333.542 2.708.813 4.104.813 1.771 0 3.563-.448 5.146-1.323l58.458-32.25c3.812-2.105 5.958-6.313 5.437-10.636zm-61.937 17.437c-1.792-9.292-2.708-18.625-2.708-27.885 0-82.344 67-149.333 149.333-149.333 37.771 0 74.125 14.51 101.687 40.219l-40.021 22.083c-17.958-12.708-39.604-19.635-61.667-19.635-58.812-.001-106.666 47.853-106.666 106.666 0 1.896.062 3.823.167 5.75z"/><path d="m509.146 3.411c-3.146-3.427-8.167-4.365-12.375-2.385l-244.084 120.167c-4.875 2.708-6.833 8.708-4.5 13.771 5.104 11.146 7.813 23.5 7.813 35.708 0 47.052-38.271 85.333-85.333 85.333-28.667 0-55.313-14.354-71.25-38.406-3.083-4.677-9.25-6.115-14.083-3.427l-55.917 31.063c-2.542 1.417-4.396 3.813-5.125 6.635-.75 2.813-.292 5.813 1.229 8.292 31.417 50.833 85.667 81.177 145.146 81.177.779 0 1.54-.064 2.315-.074l40.664 162.658c1.063 4.24 4.604 7.396 8.917 7.99.479.063.958.094 1.438.094 3.813 0 7.375-2.042 9.292-5.417l277.332-490.668c2.292-4.052 1.688-9.115-1.479-12.511zm-281.271 469.407-36.188-144.729c-1.177-4.681-5.807-7.884-10.354-8.083-3.292.219-7.313 0-10.667 0-48.292 0-92.646-22.885-120.75-61.75l37.562-20.865c20.229 25.177 50.646 39.948 83.188 39.948 58.813 0 106.667-47.854 106.667-106.667 0-11.969-2.083-24.042-6.063-35.396l204.23-100.573z"/></svg>