<svg enable-background="new 0 0 512 512" viewBox="0 0 512 512" style="fill:#484848;" xmlns="http://www.w3.org/2000/svg"><path d="m416 0h-320c-5.896 0-10.667 4.771-10.667 10.667v490.667c0 5.895 4.771 10.666 10.667 10.666h320c5.896 0 10.667-4.771 10.667-10.667v-490.666c0-5.896-4.771-10.667-10.667-10.667zm-53.333 490.667h-256v-320h90.823c19.938 0 38.688-7.771 52.802-21.875l26.5-26.5c10.083-10.083 23.479-15.625 37.719-15.625h48.156zm42.666 0h-21.333v-42.667h21.333zm0-64h-21.333v-256h21.333zm0-277.334h-21.333v-42.667h21.333zm0-64h-90.823c-19.938 0-38.688 7.771-52.802 21.875l-26.5 26.5c-10.083 10.083-23.479 15.625-37.719 15.625h-90.823v-128h298.667z"/><path d="m170.667 128c23.531 0 42.667-19.146 42.667-42.667s-19.135-42.667-42.667-42.667-42.667 19.147-42.667 42.667c0 23.521 19.135 42.667 42.667 42.667zm0-64c11.76 0 21.333 9.563 21.333 21.333 0 11.771-9.573 21.333-21.333 21.333s-21.333-9.563-21.333-21.333c-.001-11.77 9.572-21.333 21.333-21.333z"/><circle cx="245.333" cy="53.333" r="10.667"/><circle cx="288" cy="53.333" r="10.667"/><circle cx="330.667" cy="53.333" r="10.667"/><path d="m146.208 280.458c-3.052-3.063-7.625-3.917-11.625-2.313-3.99 1.646-6.583 5.542-6.583 9.854v42.667c0 4.313 2.594 8.208 6.583 9.854 1.323.542 2.708.813 4.083.813 2.771 0 5.5-1.083 7.542-3.125l21.333-21.333c4.167-4.167 4.167-10.917 0-15.083z"/><path d="m202.667 448c-5.896 0-10.667 4.771-10.667 10.667s4.771 10.667 10.667 10.667h106.667c5.896 0 10.667-4.771 10.667-10.667s-4.772-10.667-10.668-10.667z"/></svg>