<?xml version="1.0" encoding="utf-8"?>
<!-- Generator: Adobe Illustrator 15.0.0, SVG Export Plug-In . SVG Version: 6.00 Build 0)  -->
<!DOCTYPE svg PUBLIC "-//W3C//DTD SVG 1.1//EN" "http://www.w3.org/Graphics/SVG/1.1/DTD/svg11.dtd">
<svg version="1.1" id="Layer_1" xmlns="http://www.w3.org/2000/svg" xmlns:xlink="http://www.w3.org/1999/xlink" x="0px" y="0px"
	 width="416px" height="145px" viewBox="0 0 416 145" enable-background="new 0 0 416 145" xml:space="preserve">
<g>
	<path fill="none" d="M51.999,141.699c99.821-63.786,218.056-66.729,339.688,14.55"/>
	<path fill="#F9CB47" stroke="#124991" stroke-width="4" stroke-miterlimit="10" d="M17.9,88.868
		c2.252-2.438,4.377-4.715,6.374-6.833c1.998-2.118,4.148-4.269,6.452-6.453c2.303-2.184,4.571-4.162,6.805-5.934
		c1.714-1.366,3.562-2.599,5.544-3.696c3.303-1.829,5.518-2.937,6.644-3.321c1.713-0.562,3.442-0.894,5.186-0.997
		c1.745-0.102,3.463,0.1,5.157,0.604c1.693,0.507,3.299,1.321,4.815,2.446c0.614,0.464,1.111,1.037,1.489,1.721
		c1.414,2.552,1.759,6.469,1.037,11.75c-0.721,5.282-1.72,10.092-2.994,14.429c-1.274,4.338-2.272,7.495-2.993,9.472l18.092,18.156
		l-5.377,11.417L33.638,95.515c-0.046,0.025-0.143,0.361-0.291,1.009c-0.148,0.647-0.342,1.492-0.584,2.533
		c-0.242,1.043-0.398,1.688-0.469,1.935c-0.069,0.038-0.562-0.328-1.48-1.101c-0.918-0.771-2.173-1.854-3.765-3.251
		c-1.592-1.396-3.37-2.94-5.336-4.636C19.748,90.31,18.477,89.265,17.9,88.868z M45.271,86.125l8.385,8.529
		c0.618-2.218,1.287-5.148,2.007-8.792c0.721-3.644,0.772-6.023,0.154-7.141c-0.239-0.433-0.562-0.582-0.963-0.449
		c-1.151,0.341-2.229,0.788-3.231,1.343C48.617,81.28,46.499,83.451,45.271,86.125z"/>
	<path fill="#F9CB47" stroke="#124991" stroke-width="4" stroke-miterlimit="10" d="M105.415,68.713
		c2.083,0.246,3.97,0.938,5.663,2.077c1.692,1.141,3.17,2.589,4.434,4.345c1.263,1.756,2.309,3.688,3.137,5.797
		c0.686,1.745,1.208,3.485,1.566,5.219c0.359,1.733,0.563,3.374,0.611,4.921c0.048,1.549-0.07,2.924-0.353,4.126
		c-0.632,2.878-1.498,5.484-2.595,7.818c-1.098,2.333-2.358,4.359-3.781,6.079c-1.423,1.721-2.932,3.166-4.528,4.339
		c-1.596,1.173-3.267,2.102-5.012,2.787c-2.061,0.809-4.144,1.256-6.25,1.342c-2.107,0.087-4.02-0.135-5.738-0.663
		c-2.862-0.947-5.496-2.703-7.902-5.27c-2.406-2.565-4.277-5.545-5.609-8.939c-2.294-5.841-2.461-11.217-0.501-16.128
		c1.675-4.211,3.746-7.703,6.209-10.476c2.465-2.772,5.309-4.792,8.533-6.058c1.89-0.742,3.801-1.221,5.732-1.433
		C100.963,68.384,103.09,68.423,105.415,68.713z M105.668,75.664c0.311,2.004,0.058,3.979-0.759,5.921
		c-0.818,1.944-1.88,3.173-3.189,3.687c-0.654,0.258-1.303,0.316-1.945,0.177c-0.955-0.296-1.719-1.172-2.29-2.626
		c-0.438-1.114-0.502-2.363-0.19-3.744c0.311-1.381,1.143-2.701,2.495-3.959c-1.6,0.628-3.026,1.538-4.279,2.729
		s-2.225,2.475-2.916,3.852c-0.691,1.376-1.121,2.79-1.292,4.243c-0.171,1.451-0.019,2.783,0.458,3.995
		c0.885,2.255,2.632,3.64,5.24,4.153c2.424,0.475,4.509,0.369,6.255-0.316c1.721-0.676,3.022-1.851,3.903-3.525
		s1.318-3.554,1.312-5.636c-0.007-2.082-0.357-4.007-1.052-5.777C106.942,77.625,106.359,76.567,105.668,75.664z"/>
	<path fill="#F9CB47" stroke="#124991" stroke-width="4" stroke-miterlimit="10" d="M105.318,43.977L122.72,31.32l13.179,43.246
		l13.837-12.458l17.083-1.424l-17.623,21.579l23.871,10.499l4.512,15.03l-34.953-14.426l5.358,18.442l-18.016,4.614l-19.011-65.229
		l-5.292,2.574L105.318,43.977z"/>
	<path fill="#F9CB47" stroke="#124991" stroke-width="4" stroke-miterlimit="10" d="M192.249,103.698l-21.757,3.62l-6.889-51.951
		l-7.007,2.392l1.066-12.201l23.52-13.049L192.249,103.698z M163.305,23.618l24.296-17.162l12.993,15.863l-30.747,9.422
		L163.305,23.618z"/>
	<path fill="#F9CB47" stroke="#124991" stroke-width="4" stroke-miterlimit="10" d="M222.957,48.191
		c1.659,1.081,3.151,2.569,4.479,4.467c1.327,1.898,2.35,3.65,3.066,5.257c0.717,1.607,1.191,2.764,1.42,3.468l-14.515,3.097
		c-0.225-1.304-0.909-2.168-2.051-2.593c-1.143-0.426-2.339-0.643-3.59-0.652c-6.619,0.576-9.955,4.497-10.009,11.763
		c0.139,5.757,1.926,8.973,5.358,9.648c1.641,0.013,3.128-0.38,4.462-1.178c1.334-0.797,2.481-1.862,3.442-3.197
		c0.959-1.333,1.759-2.832,2.396-4.494l14.471,3.037c-0.16,0.52-0.547,1.558-1.156,3.116c-0.69,1.74-2.29,4.059-4.798,6.957
		c-2.509,2.898-5.29,4.922-8.346,6.071c-3.682,1.405-7.334,2.094-10.953,2.067c-5.781-0.043-10.897-1.968-15.348-5.777
		c-2.019-1.786-3.481-3.854-4.388-6.204c-0.906-2.351-1.351-4.828-1.332-7.432c0.02-2.709,0.418-5.375,1.192-8
		c0.775-2.624,1.717-5.013,2.826-7.167c1.453-2.802,3.046-5.192,4.78-7.172c1.733-1.979,3.548-3.593,5.446-4.843
		c1.896-1.249,3.837-2.165,5.821-2.75c1.983-0.584,3.978-0.869,5.983-0.854C215.729,44.857,219.509,45.979,222.957,48.191z"/>
	<path fill="#F9CB47" stroke="#124991" stroke-width="4" stroke-miterlimit="10" d="M259.645,53.701l17.219-4.901l-2.852,21.651
		c0.01,1.37-0.111,2.905-0.36,4.606c-0.219,1.494-0.433,2.595-0.642,3.301l-3.004,23.761l-17.528-1.619l0.345-2.357
		c-3.004,0.744-5.949,0.906-8.835,0.483c-2.216-0.324-4.247-0.964-6.095-1.919c-1.848-0.954-3.396-2.103-4.648-3.443
		c-2.014-2.243-3.428-5.074-4.243-8.498c-0.814-3.422-0.958-6.937-0.431-10.544c0.91-6.21,3.434-10.96,7.574-14.249
		c3.566-2.794,7.115-4.788,10.646-5.981c3.531-1.194,7.009-1.54,10.437-1.038c0.952,0.14,1.671,0.271,2.153,0.394L259.645,53.701z
		 M258.34,60.458c-1.444-0.026-2.908,0.22-4.393,0.739s-2.787,1.198-3.91,2.033c-1.123,0.836-2.047,1.8-2.771,2.891
		c-0.727,1.092-1.172,2.204-1.338,3.338c-0.343,2.345,0.485,4.413,2.486,6.206c1.766,1.602,3.654,2.549,5.664,2.844
		c0.387,0.057,0.922,0.082,1.607,0.077l1.205-8.233c-0.695-0.102-1.287-0.372-1.775-0.812c-0.684-0.732-0.896-1.974-0.64-3.727
		C254.846,63.29,256.133,61.505,258.34,60.458z"/>
	<path fill="#F9CB47" stroke="#124991" stroke-width="4" stroke-miterlimit="10" d="M320.011,76.057l-15.735,4.82
		c-0.169-1.863-0.626-3.546-1.372-5.049c-0.747-1.502-1.696-2.419-2.848-2.75c-1.651-0.475-3.414,0.427-5.29,2.705
		c-1.795,2.193-3.595,6.418-5.395,12.675c-1.26,4.379-2.518,9.6-3.774,15.66l-19.048-3.164c1.148-8.043,2.596-15.092,4.339-21.148
		c0.286-1.001,0.733-2.362,1.337-4.086l5.633-22.118l15.283,2.406l1.426,3.093c1.924-0.096,3.693-0.143,5.305-0.14
		s3.104,0.066,4.478,0.191c1.373,0.124,2.672,0.362,3.898,0.715c2.478,0.714,4.493,1.902,6.046,3.569
		c1.997,2.011,3.482,3.929,4.463,5.755C319.734,71.018,320.152,73.307,320.011,76.057z"/>
	<path fill="#F9CB47" stroke="#124991" stroke-width="4" stroke-miterlimit="10" d="M359.444,51.668l17.898-0.379l-19.768,49.067
		c-0.337,1.328-0.841,2.783-1.513,4.365c-0.591,1.39-1.076,2.4-1.457,3.031l-8.926,22.225l-16.547-6.006l0.932-2.193
		c-3.096-0.041-5.984-0.631-8.668-1.771c-2.062-0.875-3.867-2.009-5.41-3.4c-1.547-1.391-2.756-2.895-3.626-4.509
		c-1.38-2.68-2.031-5.777-1.952-9.295c0.078-3.517,0.829-6.953,2.255-10.31c2.452-5.776,6.097-9.732,10.936-11.865
		c4.157-1.8,8.097-2.829,11.813-3.091c3.719-0.26,7.171,0.286,10.359,1.64c0.888,0.376,1.548,0.686,1.982,0.926L359.444,51.668z
		 M344.946,86.721c-1.39-0.393-2.868-0.524-4.436-0.398c-1.567,0.127-3,0.453-4.298,0.978s-2.436,1.222-3.414,2.094
		s-1.69,1.835-2.139,2.89c-0.926,2.182-0.649,4.394,0.834,6.635c1.303,1.996,2.889,3.391,4.758,4.184
		c0.359,0.153,0.871,0.314,1.535,0.482l3.252-7.658c-0.646-0.275-1.152-0.688-1.512-1.236c-0.476-0.881-0.367-2.136,0.324-3.767
		C340.85,88.574,342.548,87.173,344.946,86.721z"/>
</g>
</svg>
